<svg version="1.1" xmlns="http://www.w3.org/2000/svg" xmlns:xlink="http://www.w3.org/1999/xlink">



    <symbol id="phone" viewBox="0 0 650 650">
        <path d="M506.847,376.187c-2.506-4.739-5.667-9.463-9.428-14.215c-8.571-10.83-20.227-21.791-34.287-32.906c-9.809-7.755-20.237-15.145-30.657-21.961c-6.267-4.1-11.191-7.129-14.123-8.847c-24.749-14.092-53.262-12.224-67.987,11.507c-0.684,0.812-1.553,1.841-2.567,3.034c-2.772,3.26-5.585,6.516-8.252,9.535c-0.576,0.651-0.576,0.651-1.151,1.298c-4.427,4.973-8.479,9.158-8.33,9.057c-16.299,11.031-26.909,10.163-41.279-4.208L184.976,224.673c-14.37-14.37-15.239-24.98-4.201-41.289c-0.107,0.158,4.078-3.894,9.051-8.321c0.647-0.575,0.647-0.575,1.298-1.151c3.019-2.667,6.275-5.48,9.535-8.252c1.193-1.014,2.221-1.884,3.034-2.567c23.731-14.725,25.602-43.232,11.64-67.756c-1.851-3.163-4.88-8.086-8.98-14.354c-6.816-10.42-14.206-20.848-21.961-30.657c-11.114-14.06-22.076-25.716-32.906-34.287c-4.752-3.761-9.477-6.922-14.222-9.432c-22.077-11.67-49.146-7.606-66.816,10.03L47.514,39.592c-76.079,76.079-55.111,166.746,35.804,257.661l66.43,66.451l66.458,66.437c90.913,90.913,181.581,111.881,257.666,35.795l22.919-22.94C514.45,425.371,518.531,398.258,506.847,376.187z M466.629,412.819l-22.934,22.955c-55.66,55.66-120.958,40.559-197.322-35.804l-66.456-66.434l-66.427-66.448c-76.366-76.366-91.467-141.664-35.8-197.331l22.919-22.94c4.408-4.4,11.174-5.415,16.709-2.489c2.276,1.204,4.866,2.937,7.688,5.17c7.823,6.191,16.675,15.605,25.913,27.291c6.887,8.712,13.561,18.13,19.727,27.554c3.689,5.64,6.357,9.977,7.74,12.337c3.849,6.764,3.612,9.72,2.477,10.358l-3.217,2.217c-0.944,0.787-2.561,2.147-4.631,3.907c-3.449,2.934-6.901,5.915-10.144,8.78c-0.708,0.627-0.708,0.627-1.418,1.257c-8.44,7.514-13.205,12.127-16.009,16.265c-22.372,33.057-19.645,66.377,9.36,95.382l103.808,103.808c29.005,29.005,62.325,31.733,95.373,9.367c4.147-2.81,8.76-7.575,16.274-16.015c0.63-0.709,0.63-0.709,1.257-1.418c2.865-3.243,5.847-6.695,8.78-10.144c1.76-2.069,3.12-3.686,3.907-4.631l2.217-3.217c0.637-1.135,3.594-1.371,10.589,2.611c2.129,1.25,6.466,3.918,12.106,7.607c9.425,6.165,18.842,12.839,27.555,19.727c11.686,9.238,21.099,18.09,27.29,25.913c2.233,2.821,3.966,5.412,5.173,7.693C472.054,401.659,471.037,408.419,466.629,412.819z" />
        <path d="M449.454,149.333c11.782,0,21.333-9.551,21.333-21.333c0-11.782-9.551-21.333-21.333-21.333
            c-23.589,0-42.667-19.078-42.667-42.667c0-11.782-9.551-21.333-21.333-21.333c-11.782,0-21.333,9.551-21.333,21.333
            C364.12,111.152,402.301,149.333,449.454,149.333z" />
        <path d="M449.454,234.666c11.782,0,21.333-9.551,21.333-21.333c0-11.782-9.551-21.333-21.333-21.333
            c-70.757,0-128-57.243-128-128c0-11.782-9.551-21.333-21.333-21.333c-11.782,0-21.333,9.551-21.333,21.333
            C278.787,158.32,355.133,234.666,449.454,234.666z" />
    </symbol>
	
    <symbol id="mail" viewBox="0 0 100 100" >
        <path d="M 75.546 78.738 H 14.455 C 6.484 78.738 0 72.254 0 64.283 V 25.716 c 0 -7.97 6.485 -14.455 14.455 -14.455 h 61.091 c 7.97 0 14.454 6.485 14.454 14.455 v 38.567 C 90 72.254 83.516 78.738 75.546 78.738 z M 14.455 15.488 c -5.64 0 -10.228 4.588 -10.228 10.228 v 38.567 c 0 5.64 4.588 10.229 10.228 10.229 h 61.091 c 5.64 0 10.228 -4.589 10.228 -10.229 V 25.716 c 0 -5.64 -4.588 -10.228 -10.228 -10.228 H 14.455 z"  />
        <path d="M 11.044 25.917 C 21.848 36.445 32.652 46.972 43.456 57.5 c 2.014 1.962 5.105 -1.122 3.088 -3.088 C 35.74 43.885 24.936 33.357 14.132 22.83 C 12.118 20.867 9.027 23.952 11.044 25.917 L 11.044 25.917 z"  />
	    <path d="M 46.544 57.5 c 10.804 -10.527 21.608 -21.055 32.412 -31.582 c 2.016 -1.965 -1.073 -5.051 -3.088 -3.088 C 65.064 33.357 54.26 43.885 43.456 54.412 C 41.44 56.377 44.529 59.463 46.544 57.5 L 46.544 57.5 z"  />
	    <path d="M 78.837 64.952 c -7.189 -6.818 -14.379 -13.635 -21.568 -20.453 c -2.039 -1.933 -5.132 1.149 -3.088 3.088 c 7.189 6.818 14.379 13.635 21.568 20.453 C 77.788 69.973 80.881 66.89 78.837 64.952 L 78.837 64.952 z"  />
	    <path d="M 14.446 68.039 c 7.189 -6.818 14.379 -13.635 21.568 -20.453 c 2.043 -1.938 -1.048 -5.022 -3.088 -3.088 c -7.189 6.818 -14.379 13.635 -21.568 20.453 C 9.315 66.889 12.406 69.974 14.446 68.039 L 14.446 68.039 z"   />
    </symbol>

    <symbol id="amaz" viewBox="0 0 24 24" >
        <path d="M12.14,2C9.513,2,6.595,2.983,5.981,6.196C5.915,6.538,6.154,6.714,6.38,6.764l2.668,0.272 c0.251-0.013,0.451-0.247,0.499-0.494c0.23-1.107,1.167-1.654,2.219-1.654c0.568,0,1.21,0.213,1.546,0.716 c0.388,0.562,0.324,1.324,0.324,1.975v0.37C12.035,8.127,9.947,8.236,8.45,8.887c-1.73,0.74-2.942,2.249-2.942,4.468 c0,2.839,1.815,4.27,4.139,4.27c1.963,0,3.023-0.471,4.538-1.999c0.501,0.718,0.679,1.072,1.596,1.827 c0.206,0.109,0.466,0.088,0.648-0.074v0.025c0.551-0.486,1.556-1.358,2.119-1.827c0.224-0.182,0.176-0.467,0-0.716 c-0.505-0.69-1.022-1.262-1.022-2.543V8.072c0-1.804,0.121-3.473-1.222-4.715C15.244,2.351,13.482,2,12.14,2z M12.888,10.146 c0.249-0.016,0.498,0,0.748,0v0.592c0,1.065,0.043,1.941-0.499,2.888c-0.439,0.769-1.145,1.234-1.92,1.234 c-1.059,0-1.671-0.792-1.671-1.975C9.546,10.85,11.146,10.259,12.888,10.146z M20.517,16.515c-0.699,0.01-1.518,0.157-2.144,0.592 c-0.192,0.134-0.164,0.321,0.05,0.296c0.705-0.084,2.263-0.281,2.543,0.074c0.28,0.355-0.31,1.815-0.573,2.468 c-0.08,0.197,0.094,0.273,0.274,0.123c1.173-0.972,1.487-2.988,1.247-3.283C21.795,16.641,21.217,16.505,20.517,16.515z M2.141,16.885c-0.146,0.019-0.204,0.208-0.05,0.346c2.608,2.331,6.047,3.727,9.874,3.727c2.73,0,5.917-0.846,8.104-2.444 c0.361-0.265,0.046-0.674-0.324-0.518c-2.452,1.03-5.131,1.53-7.555,1.53c-3.594,0-7.061-0.971-9.874-2.592 C2.254,16.899,2.189,16.879,2.141,16.885z"/>
    </symbol>

    <symbol id="car" viewBox="0 0 612 612" >
		<path d="M504.9,395.756c-28.684,0-52.02,23.342-52.02,52.02c0,28.684,23.336,52.02,52.02,52.02c28.678,0,52.02-23.336,52.02-52.02
			C556.92,419.098,533.578,395.756,504.9,395.756z M504.9,463.076c-8.439,0-15.3-6.861-15.3-15.3c0-8.439,6.861-15.3,15.3-15.3
			s15.3,6.861,15.3,15.3C520.2,456.215,513.339,463.076,504.9,463.076z"/>
		<path d="M499.918,179.518H410.04c-6.763,0-12.24,5.484-12.24,12.24v238.68c0,6.756,5.477,12.24,12.24,12.24h12.981
			c6.059,0,11.426-4.364,12.209-10.373c4.804-36.806,34.162-59.633,69.676-59.633s64.872,22.828,69.676,59.633
			c0.783,6.01,6.144,10.373,12.209,10.373h12.968c6.756,0,12.24-5.484,12.24-12.24v-119.34c0-2.876-1.01-5.655-2.852-7.852
			l-99.842-119.34C506.981,181.128,503.541,179.518,499.918,179.518z M422.28,277.438v-61.2c0-6.756,5.477-12.24,12.24-12.24h53.917
			c3.629,0,7.075,1.616,9.4,4.406l50.998,61.2c6.64,7.974,0.973,20.074-9.406,20.074H434.52
			C427.757,289.678,422.28,284.201,422.28,277.438z"/>
		<path d="M12.24,442.684h31.341c6.059,0,11.426-4.364,12.209-10.373c4.804-36.806,34.162-59.633,69.676-59.633
			s64.872,22.828,69.676,59.633c0.783,6.01,6.144,10.373,12.209,10.373H361.08c6.757,0,12.24-5.484,12.24-12.24v-306
			c0-6.756-5.484-12.24-12.24-12.24H12.24c-6.763,0-12.24,5.484-12.24,12.24v306C0,437.201,5.477,442.684,12.24,442.684z"/>
		<path d="M125.46,395.756c-28.684,0-52.02,23.342-52.02,52.02c0,28.684,23.336,52.02,52.02,52.02
			c28.678,0,52.02-23.336,52.02-52.02C177.48,419.098,154.138,395.756,125.46,395.756z M125.46,463.076
			c-8.439,0-15.3-6.861-15.3-15.3c0-8.439,6.861-15.3,15.3-15.3s15.3,6.861,15.3,15.3
			C140.76,456.215,133.899,463.076,125.46,463.076z"/>
    </symbol>

    <symbol id="adv" viewBox="0 0 512 512" >
        <path d="M448,109.693V21.33c0-7.765-4.203-14.891-11.008-18.645c-6.741-3.776-15.061-3.541-21.632,0.555L249.877,106.664H85.333
			c-11.797,0-21.333,9.557-21.333,21.333v42.667H21.333C9.536,170.664,0,180.221,0,191.997s9.536,21.333,21.333,21.333H64v42.667
			c0,11.776,9.536,21.333,21.333,21.333h21.333v170.667c0,35.285,28.715,64,64,64s64-28.715,64-64V277.33h15.211L415.36,380.754
			c3.456,2.155,7.36,3.243,11.307,3.243c3.563,0,7.125-0.875,10.325-2.667c6.805-3.776,11.008-10.901,11.008-18.667v-88.363
			c36.693-9.536,64-42.645,64-82.304C512,152.36,484.693,119.229,448,109.693z M192,447.997c0,11.755-9.557,21.333-21.333,21.333
			s-21.333-9.579-21.333-21.333V277.33H192V447.997z M405.333,127.997v128v68.181l-128-80V139.816l128-80V127.997z"/>
    </symbol>

    <symbol id="catal" viewBox="0 0 32 32" >
        <path class="sharpcorners_een" d="M25,8H7V2h18V8z M30,9v14h-4v-4H6v4H2V9H30z M5,11H4v1h1V11z M7,11H6v1h1V11z M7,20h18v10H7V20z
	 M12,23h8v-1h-8V23z M12,25h8v-1h-8V25z M12,27h8v-1h-8V27z"/>
    </symbol>

    <symbol id="sell" viewBox="0 0 16 16" >
        <path d="M12 6v-6h-8v6h-4v7h16v-7h-4zM7 12h-6v-5h2v1h2v-1h2v5zM5 6v-5h2v1h2v-1h2v5h-6zM15 12h-6v-5h2v1h2v-1h2v5z"></path>
        <path d="M0 16h3v-1h10v1h3v-2h-16v2z"></path>
    </symbol>

    <symbol id="content" viewBox="0 0 24 24" >
        <path d="M8 9H5a1 1 0 1 1 0-2h3a1 1 0 1 1 0 2zm0 4H5a1 1 0 0 1 0-2h3a1 1 0 1 1 0 2zm0 4H5a1 1 0 0 1 0-2h3a1 1 0 0 1 0 2zm8-8h3a1 1 0 0 0 0-2h-3a1 1 0 0 0 0 2zm0 4h3a1 1 0 0 0 0-2h-3a1 1 0 0 0 0 2zm0 4h3a1 1 0 0 0 0-2h-3a1 1 0 0 0 0 2z"/>
        <path d="M22 2h-9c-.351 0-.696.093-1 .27A1.994 1.994 0 0 0 11 2H2a2.006 2.006 0 0 0-2 2v16a2.006 2.006 0 0 0 2 2h9c.34.003.676-.087.97-.26a.05.05 0 0 1 .06 0c.294.173.63.263.97.26h9a2.006 2.006 0 0 0 2-2V4a2.006 2.006 0 0 0-2-2zM10.5 20h-8a.5.5 0 0 1-.5-.5v-15a.5.5 0 0 1 .5-.5h8a.5.5 0 0 1 .5.5v15a.5.5 0 0 1-.5.5zm11.5-.5a.5.5 0 0 1-.5.5h-8a.5.5 0 0 1-.5-.5v-15a.5.5 0 0 1 .5-.5h8a.5.5 0 0 1 .5.5v15z"/>
    </symbol>

    <symbol id="brand" viewBox="0 0 295 295" >
        <path d="M290.156,23.89c-0.482-10.311-8.733-18.562-19.044-19.044L168.005,0.023c-5.62-0.272-11.097,1.855-15.077,5.836
	L5.858,152.93C2.108,156.681,0,161.767,0,167.072s2.107,10.392,5.858,14.143l107.929,107.928c3.904,3.905,9.023,5.857,14.142,5.857
	c5.118,0,10.237-1.953,14.143-5.857l147.069-147.069c3.98-3.98,6.1-9.454,5.837-15.077L290.156,23.89z M252.481,76.087
	c-9.269,9.269-24.298,9.269-33.567,0s-9.269-24.298,0-33.567s24.298-9.269,33.567,0S261.751,66.817,252.481,76.087z"/>
    </symbol>

</svg>